<?xml version="1.0" encoding="utf-8"?>
<!-- Generator: Adobe Illustrator 27.1.1, SVG Export Plug-In . SVG Version: 6.00 Build 0)  -->
<svg version="1.1" id="Layer_1" xmlns="http://www.w3.org/2000/svg" xmlns:xlink="http://www.w3.org/1999/xlink" x="0px" y="0px"
	 viewBox="0 0 708.66 283.46" style="enable-background:new 0 0 708.66 283.46;" xml:space="preserve">
<style type="text/css">
	.st0{fill:none;stroke:#000000;stroke-miterlimit:10;}
</style>
<path class="st0" d="M558.44,58.82c-13.69-5.35-49.5-17.12-85.71-2.08c-22.32,9.27-34.42,25.16-54.78,51.39
	c-28.13,36.23-44.85,73.25-50.09,85.3c-16.6,38.24-17.4,55.45-38.09,73.04c-6.72,5.71-24.46,20.79-42.52,16.99
	c-29.37-6.19-39.44-58.14-43.04-75.16c-18.13-85.75,27.1-151.48,42.26-169.83c6.27-7.59,20.39-21.64,42.52-26.87
	c8.11-1.92,15.01-2.04,19.3-1.89"/>
<path class="st0" d="M708.66,170.87c-7.75-4.97-20.31-11.58-36.48-13.48c-46.34-5.43-67.78,34.24-112.31,28.74
	c-3.32-0.41-33.32-4.57-49.18-28.54c-18.45-27.88-12.25-74.24,15.37-91.6c11.77-7.4,24.6-7.74,32.39-7.18"/>
<path class="st0" d="M0,196.57c-0.4,25.78,11.25,46.07,27.43,50.87c13.13,3.89,25.75-3.45,30-6c25.38-15.24,32.23-47.08,34.96-57.91
	C111.37,108.16,195.37,14.21,276.2,1.44c14.85-2.35,39.47-3.52,72.1,8.27"/>
</svg>
